<svg width="25" height="24" viewBox="0 0 25 24" fill="none" xmlns="http://www.w3.org/2000/svg">
<path d="M9.64285 4.57127H14.2143V2.28555H9.64285V4.57127ZM18.7857 23.9998C17.2048 23.9998 15.8573 23.4429 14.7434 22.329C13.6288 21.2143 13.0714 19.8665 13.0714 18.2856C13.0714 16.7046 13.6288 15.3568 14.7434 14.2421C15.8573 13.1282 17.2048 12.5713 18.7857 12.5713C20.3667 12.5713 21.7145 13.1282 22.8291 14.2421C23.943 15.3568 24.5 16.7046 24.5 18.2856C24.5 19.8665 23.943 21.2143 22.8291 22.329C21.7145 23.4429 20.3667 23.9998 18.7857 23.9998ZM20.6714 20.9713L21.4714 20.1713L19.3571 18.057V14.857H18.2143V18.5141L20.6714 20.9713ZM11.5571 21.7141H2.78571C2.15714 21.7141 1.61923 21.4905 1.17199 21.0433C0.723992 20.5953 0.499992 20.057 0.499992 19.4284V6.85698C0.499992 6.22841 0.723992 5.69051 1.17199 5.24327C1.61923 4.79527 2.15714 4.57127 2.78571 4.57127H7.35714V2.28555C7.35714 1.65698 7.58114 1.1187 8.02914 0.670697C8.47637 0.223459 9.01428 -0.000160217 9.64285 -0.000160217H14.2143C14.8428 -0.000160217 15.3811 0.223459 15.8291 0.670697C16.2764 1.1187 16.5 1.65698 16.5 2.28555V4.57127H21.0714C21.7 4.57127 22.2383 4.79527 22.6863 5.24327C23.1335 5.69051 23.3571 6.22841 23.3571 6.85698V11.7427C22.6905 11.2665 21.9667 10.9046 21.1857 10.657C20.4048 10.4094 19.6048 10.2856 18.7857 10.2856C16.5571 10.2856 14.6669 11.0616 13.1149 12.6136C11.5621 14.1663 10.7857 16.057 10.7857 18.2856C10.7857 18.8951 10.8478 19.4856 10.972 20.057C11.0954 20.6284 11.2905 21.1808 11.5571 21.7141Z" fill="#1D1A1A"/>
</svg>
